<svg width="512" height="512" xmlns="http://www.w3.org/2000/svg">
  <defs>
    <linearGradient id="grad" x1="0%" y1="0%" x2="100%" y2="100%">
      <stop offset="0%" style="stop-color:#667eea;stop-opacity:1" />
      <stop offset="100%" style="stop-color:#764ba2;stop-opacity:1" />
    </linearGradient>
  </defs>
  
  <!-- Background -->
  <rect width="512" height="512" rx="100" fill="url(#grad)"/>
  
  <!-- Maze frame -->
  <rect x="80" y="80" width="352" height="352" rx="20" fill="#ffffff" opacity="0.9"/>
  
  <!-- Maze walls -->
  <rect x="90" y="90" width="100" height="10" fill="#333"/>
  <rect x="90" y="90" width="10" height="100" fill="#333"/>
  <rect x="322" y="90" width="100" height="10" fill="#333"/>
  <rect x="412" y="90" width="10" height="100" fill="#333"/>
  <rect x="90" y="412" width="100" height="10" fill="#333"/>
  <rect x="90" y="322" width="10" height="100" fill="#333"/>
  <rect x="322" y="412" width="100" height="10" fill="#333"/>
  <rect x="412" y="322" width="10" height="100" fill="#333"/>
  
  <!-- Player ball -->
  <circle cx="150" cy="150" r="30" fill="#ffd700" stroke="#ffed4e" stroke-width="3"/>
  <circle cx="142" cy="142" r="5" fill="#333"/>
  <circle cx="158" cy="142" r="5" fill="#333"/>
  
  <!-- Goal -->
  <circle cx="372" cy="372" r="35" fill="#ff9500" opacity="0.8"/>
  <circle cx="372" cy="372" r="20" fill="#ffb84d"/>
  
  <!-- Rotation arrows -->
  <path d="M 256 450 Q 230 450 230 470 L 250 460 L 230 450 Q 230 470 256 470" 
        fill="white" opacity="0.7"/>
  <path d="M 256 450 Q 282 450 282 470 L 262 460 L 282 450 Q 282 470 256 470" 
        fill="white" opacity="0.7"/>
</svg>
